<svg aria-hidden="true" style="width:0;height:0;position:absolute;overflow:hidden" xmlns="http://www.w3.org/2000/svg"><defs><symbol id="icon-close" viewBox="0 0 32 32"><path stroke-linejoin="round" stroke-linecap="round" stroke-width="2" d="m27.429 3.428-24 24M3.429 3.428l24 24"/></symbol><symbol id="arrow-down-bold" viewBox="0 0 32 32"><path d="M3.272 10.586a2 2 0 0 1 2.828 0l9.9 9.9 9.9-9.9a1.998 1.998 0 0 1 2.804.025 2.001 2.001 0 0 1 .025 2.804L17.415 24.729a2 2 0 0 1-2.828 0L3.273 13.415a2 2 0 0 1 0-2.828z"/><symbol id="icon-entypo_location-pin" viewBox="0 0 32 32"><path fill="#c79002" style="fill:var(--color1,#c79002)" d="M16 3.215c-4.419 0-8 3.566-8 7.984 0 7.638 8 17.6 8 17.6s8-9.963 8-17.6c0-4.416-3.581-7.984-8-7.984zm0 12.401a4.32 4.32 0 1 1 0-8.64 4.32 4.32 0 0 1 0 8.64z"/></symbol><symbol id="icon-fluent_phone-24-regular" viewBox="0 0 32 32"><path fill="#c79002" style="fill:var(--color1,#c79002)" d="M21 2.667a3.004 3.004 0 0 1 3 3v20.667a3.004 3.004 0 0 1-3 3H11a3.004 3.004 0 0 1-3-3V5.667a3.004 3.004 0 0 1 3-3h10zm0 2H11a.997.997 0 0 0-1 1v20.667a1 1 0 0 0 1 1h10a.997.997 0 0 0 1-1V5.667a.997.997 0 0 0-1-1zm-3.335 18.666a1 1 0 0 1 .002 2l-3.333.005a1 1 0 0 1-.002-2l3.333-.005z"/></symbol><symbol id="icon-swiper_right_button_icon" viewBox="0 0 56 32"><path d="m40.583 0-2.67 2.689 11.329 11.409H.001v3.803h49.241L37.913 29.31l2.67 2.689 15.888-16-15.888-16z"/></symbol><symbol id="icon-swiper_left_button_icon" viewBox="0 0 56 32"><path d="M56.471 14.098H7.23L18.559 2.689 15.889 0 .001 16l15.888 16 2.67-2.689L7.23 17.902h49.242v-3.803z"/></symbol></symbol></defs></svg>