<svg aria-hidden="true" style="position: absolute; width: 0; height: 0; overflow: hidden;" version="1.1" xmlns="http://www.w3.org/2000/svg" xmlns:xlink="http://www.w3.org/1999/xlink">
<defs>
<symbol id="icon-entypo_location-pin" viewBox="0 0 32 32">
<path fill="#c79002" style="fill: var(--color1, #c79002)" d="M16 3.215c-4.419 0-8 3.566-8 7.984 0 7.638 8 17.6 8 17.6s8-9.963 8-17.6c0-4.416-3.581-7.984-8-7.984zM16 15.616c-1.146 0-2.245-0.455-3.055-1.265s-1.265-1.909-1.265-3.055 0.455-2.245 1.265-3.055c0.81-0.81 1.909-1.265 3.055-1.265s2.245 0.455 3.055 1.265c0.81 0.81 1.265 1.909 1.265 3.055s-0.455 2.245-1.265 3.055c-0.81 0.81-1.909 1.265-3.055 1.265z"></path>
</symbol>
<symbol id="icon-fluent_phone-24-regular" viewBox="0 0 32 32">
<path fill="#c79002" style="fill: var(--color1, #c79002)" d="M21 2.667c0.796 0 1.559 0.316 2.121 0.879s0.879 1.326 0.879 2.121v20.667c0 0.796-0.316 1.559-0.879 2.121s-1.326 0.879-2.121 0.879h-10c-0.796 0-1.559-0.316-2.121-0.879s-0.879-1.326-0.879-2.121v-20.667c0-0.796 0.316-1.559 0.879-2.121s1.326-0.879 2.121-0.879h10zM21 4.667h-10c-0.265 0-0.52 0.105-0.707 0.293s-0.293 0.442-0.293 0.707v20.667c0 0.552 0.448 1 1 1h10c0.265 0 0.52-0.105 0.707-0.293s0.293-0.442 0.293-0.707v-20.667c0-0.265-0.105-0.52-0.293-0.707s-0.442-0.293-0.707-0.293zM17.665 23.333c0.265-0 0.52 0.105 0.707 0.292s0.293 0.441 0.294 0.707-0.105 0.52-0.292 0.707c-0.187 0.188-0.441 0.293-0.707 0.294l-3.333 0.005c-0.265 0-0.52-0.105-0.707-0.292s-0.293-0.441-0.294-0.707c-0-0.265 0.105-0.52 0.292-0.707s0.441-0.293 0.707-0.294l3.333-0.005z"></path>
</symbol>
<symbol id="icon-swiper_right_button_icon" viewBox="0 0 56 32">
<path d="M40.583 0l-2.67 2.689 11.329 11.409h-49.241v3.803h49.241l-11.329 11.409 2.67 2.689 15.888-16-15.888-16z"></path>
</symbol>
<symbol id="icon-swiper_left_button_icon" viewBox="0 0 56 32">
<path d="M56.471 14.098h-49.241l11.329-11.409-2.67-2.689-15.888 16 15.888 16 2.67-2.689-11.329-11.409h49.242v-3.803z"></path>
</symbol>
</defs>
</svg>
